<?xml version="1.0" encoding="UTF-8"?>
<!DOCTYPE svg PUBLIC "-//W3C//DTD SVG 1.1//EN" "http://www.w3.org/Graphics/SVG/1.1/DTD/svg11.dtd">
<!-- Creator: CorelDRAW (Versão OEM) -->
<svg xmlns="http://www.w3.org/2000/svg" xml:space="preserve" width="2500px" height="2500px" version="1.1" style="shape-rendering:geometricPrecision; text-rendering:geometricPrecision; image-rendering:optimizeQuality; fill-rule:evenodd; clip-rule:evenodd"
viewBox="0 0 2500 2500"
 xmlns:xlink="http://www.w3.org/1999/xlink"
 xmlns:xodm="http://www.corel.com/coreldraw/odm/2003">
 <defs>
  <style type="text/css">
   <![CDATA[
    .fil0 {fill:black;fill-rule:nonzero}
   ]]>
  </style>
 </defs>
 <g id="Camada_x0020_1">
  <metadata id="CorelCorpID_0Corel-Layer"/>
  <g id="_2514778897664">
   <path class="fil0" d="M1667.77 1169.47c23.11,-13.36 44.58,-18.4 70.61,-18.05 14.84,0.19 46.74,19.79 37.44,37.87 -70.63,137.15 -67.97,186.09 -67.82,336.52 0.14,164.85 -79.1,313.54 -208.38,414.22 -59.18,46.08 -125.55,83.21 -199.31,104.03 -122.26,34.48 -251.09,29.77 -372.19,-5.07 -63.24,-18.2 -118.35,-47.68 -173.81,-81.73 -49.15,-30.19 -88.69,-70.74 -127.88,-113.22 -105.72,-114.6 -141.3,-278.08 -121.73,-430.74 11.56,-90.02 44.33,-170.32 99.37,-243.29 98.27,-130.26 214.92,-148.48 333.02,-249.27 70.31,-60 -24.35,-99.7 -47.26,-206.84 -7.91,-36.95 -10.76,-76.69 -1.67,-112.6 14.65,-57.88 40.41,-112.04 84.33,-152.22 45.52,-41.68 104.35,-69.99 169.12,-73.99 -43.3,82.59 -77.42,158.85 -93.85,245.01 -12.47,65.25 23.74,125.22 82.94,148.48 55.85,21.96 126.5,0.98 158.86,-54.78 17.5,-30.12 22.12,-65.58 32.38,-98.82 17.06,-55.2 40.29,-108.88 76.1,-159.24 82.72,96.76 95.22,235.64 35.58,344.84 -27.45,50.27 -121.62,189.13 -158.76,230.58 -27.44,30.63 -56.06,59.59 -86.31,87.13l-60.55 55.1c-78.01,71.03 -117.89,77.96 -165.84,171.39 -60.65,118.16 -18.67,254.31 102.53,313.07 34.02,16.48 72.57,23.07 112.1,24.97 145.92,6.98 238.47,-118.99 279.3,-243.91 20.8,-63.62 47.68,-123.11 89.89,-175.4 32.64,-40.42 75.42,-67.25 121.79,-94.04z"/>
   <path class="fil0" d="M2249.86 828.14c36.94,-81.73 51.09,-160.42 54.06,-247.6 4.28,-126.27 -37.18,-244.96 -125.49,-336.8 -51.62,-53.68 -118.72,-85.53 -191.47,-103.29 -87.82,-21.45 -174.04,-12.38 -260.51,11.25 -234.71,64.12 -419.09,243.57 -479.73,480.02 -7.15,27.87 -20.57,51.35 -46.93,64.56 -20.86,10.45 -44.97,3.91 -61.31,-8.34 -20.06,-15.05 -24.54,-38.21 -20.65,-64.65 14.57,-98.63 58.58,-185.18 114.13,-266.84 42.99,-63.22 90.79,-114.93 148.07,-165.42 77.72,-68.5 166.15,-117.54 266.11,-148.75 79.48,-24.81 158.58,-44.4 242.34,-42.1 121.66,3.35 237.66,40.63 334.31,112.42 64.36,47.8 116.13,105.55 148.01,178.73 13.51,31.02 26.88,61.32 36.7,94.08 52.15,174.1 24.4,340.12 -43.94,505.63 -20.34,49.22 -48.44,90.83 -73.79,139.17 -128.48,197.14 -302.24,358.37 -513.55,475.96l-0.19 -147.91c202.29,-127.35 373.65,-308.47 473.83,-530.12z"/>
   <path class="fil0" d="M1969.04 1838.26c-101.16,158.25 -221.1,292.57 -365.05,408.9 -81.4,65.77 -167.49,118.88 -258.22,170.71 -53.59,30.59 -110.16,49.57 -166.84,74.14 -19.62,8.52 -40.5,11.33 -61.61,3.54 -85.47,-31.45 -162.63,-73.69 -239.83,-121.7 -55.02,-34.23 -108.51,-66.15 -159.59,-105.82 -57.33,-44.52 -109.85,-90.68 -163.37,-139.93 -23.97,-22.07 -129.27,-139.99 -150.21,-168.24 -76.51,-103.25 -144.62,-211.98 -191.12,-331.93 -38.94,-100.47 -67.63,-199.11 -90.08,-303.23 -61.95,-287.17 -75.56,-558.34 -40.28,-849.63 3.26,-26.8 5.05,-43.06 33.56,-54.92 77.71,-32.31 160.26,-53.22 240.47,-81.1l128.18 -44.53 83.03 -23.25 242.41 -81.56 175.26 -59.67 106.2 -35.28c17.26,-5.74 43.61,-22.36 62.14,-17.19 62.36,17.38 120.32,40.84 181.61,64.94l-92.12 91.91 -55.11 -17.76c-14.39,-7.89 -36.55,-15.58 -52.34,-10.02l-153.81 54.18 -404.89 135.34 -372.45 119.91c-18.52,223.31 -17.27,444.79 17.36,667.01 18.39,117.96 50.38,228.1 89.17,339.5 42.48,121.97 101.09,229.77 175.77,334.82 77.48,108.97 170.53,201.11 274.49,285.16 71.83,58.07 143.25,108.38 224.52,152.02l128.99 69.26c14.29,7.68 38.38,9.1 53.14,2.41 48.47,-21.96 91.8,-44.86 138.73,-69.31 85.46,-44.5 160.05,-99.04 235.13,-159.3 231.21,-185.51 377.35,-420.48 470.16,-701.03 19.09,-19.07 37.13,-36.86 56.99,-54.43l100.81 -89.17c-31.35,195.38 -95.4,379.74 -201.2,545.25z"/>
   <path class="fil0" d="M2191.04 804.08c-36.39,87.77 -49.06,91.63 -96.21,168.43 9.34,-154.7 12.83,-300.48 -1.63,-450.96l-237.03 -80.55 -117.94 -37.34c-77.96,-33.69 -142.7,-44.61 -220.19,-76.53 30.93,-27.32 62.95,-42.39 94.97,-61.23 27.67,-16.28 46.43,-22.04 77.84,-11.54l317.55 106.04c59.49,19.87 114.75,37.05 173.03,59.68 14.17,5.5 26.48,23.78 28.53,38.58 9.53,68.61 14.59,134.54 13.82,203.87 -0.56,50.18 -14.02,96.41 -32.74,141.55z"/>
  </g>
 </g>
</svg>
